# xmcd
#
# Track frame offsets:
#  150
#  11843
#  24138
#  41241
#  54117
#  65043
#  73922
#  85718
#  96308
#  106999
#
# Disc length: 1569 seconds
#
# Revision: 0
# Processed by: cddbd v1.5.1PL2 Copyright (c) Steve Scherf et al.
# Submitted via: Collectorz.com_Music_Collector 6.9
#
DISCID=80061f0a
DTITLE=Davilita, Pedro Ortiz Davila - Hernandez , Mario - Mi Gran Bandera
DYEAR=1900
DGENRE=
TTITLE0=Mi Gran Bandera
TTITLE1=El Bambu
TTITLE2=Lamento Caribe
TTITLE3=Preciosa
TTITLE4=Borinquen
TTITLE5=Los Tres Patriotas
TTITLE6=Mi Patria Tiembla
TTITLE7=Sueño Patriotico
TTITLE8=Viet-Nam
TTITLE9=No des tu Tierra al Extraño
EXTD=
EXTT0=
EXTT1=
EXTT2=
EXTT3=
EXTT4=
EXTT5=
EXTT6=
EXTT7=
EXTT8=
EXTT9=
PLAYORDER=
